<?xml version="1.0"?>
<!-- Generated by SVGo -->
<svg width="296.700mm" height="106.200mm"
     viewBox="0.000 0.000 296.700 106.200"
     xmlns="http://www.w3.org/2000/svg" 
     xmlns:xlink="http://www.w3.org/1999/xlink">
<polygon points="287.700,5.000 288.014,5.012 288.326,5.049 288.634,5.111 288.936,5.196 289.231,5.304 289.516,5.436 289.790,5.589 290.051,5.764 290.298,5.958 290.528,6.172 290.742,6.402 290.936,6.649 291.111,6.910 291.264,7.184 291.396,7.469 291.504,7.764 291.589,8.066 291.651,8.374 291.688,8.686 291.700,9.000 291.700,97.200 291.688,97.514 291.651,97.826 291.589,98.134 291.504,98.436 291.396,98.731 291.264,99.016 291.111,99.290 290.936,99.551 290.742,99.798 290.528,100.028 290.298,100.242 290.051,100.436 289.790,100.611 289.516,100.764 289.231,100.896 288.936,101.004 288.634,101.089 288.326,101.151 288.014,101.188 287.700,101.200 9.000,101.200 8.686,101.188 8.374,101.151 8.066,101.089 7.764,101.004 7.469,100.896 7.184,100.764 6.910,100.611 6.649,100.436 6.402,100.242 6.172,100.028 5.958,99.798 5.764,99.551 5.589,99.290 5.436,99.016 5.304,98.731 5.196,98.436 5.111,98.134 5.049,97.826 5.012,97.514 5.000,97.200 5.000,9.000 5.012,8.686 5.049,8.374 5.111,8.066 5.196,7.764 5.304,7.469 5.436,7.184 5.589,6.910 5.764,6.649 5.958,6.402 6.172,6.172 6.402,5.958 6.649,5.764 6.910,5.589 7.184,5.436 7.469,5.304 7.764,5.196 8.066,5.111 8.374,5.049 8.686,5.012 9.000,5.000" style="fill:none;stroke-width:0.2;stroke:black"/>
<polygon points="286.700,7.500 287.473,7.622 288.169,7.977 288.723,8.531 289.078,9.227 289.200,10.000 289.078,10.773 288.723,11.469 288.169,12.023 287.473,12.378 286.700,12.500 285.927,12.378 285.231,12.023 284.677,11.469 284.322,10.773 284.200,10.000 284.322,9.227 284.677,8.531 285.231,7.977 285.927,7.622" style="fill:none;stroke-width:0.2;stroke:black"/>
<polygon points="286.700,93.700 287.473,93.822 288.169,94.177 288.723,94.731 289.078,95.427 289.200,96.200 289.078,96.973 288.723,97.669 288.169,98.223 287.473,98.578 286.700,98.700 285.927,98.578 285.231,98.223 284.677,97.669 284.322,96.973 284.200,96.200 284.322,95.427 284.677,94.731 285.231,94.177 285.927,93.822" style="fill:none;stroke-width:0.2;stroke:black"/>
<polygon points="10.000,93.700 10.773,93.822 11.469,94.177 12.023,94.731 12.378,95.427 12.500,96.200 12.378,96.973 12.023,97.669 11.469,98.223 10.773,98.578 10.000,98.700 9.227,98.578 8.531,98.223 7.977,97.669 7.622,96.973 7.500,96.200 7.622,95.427 7.977,94.731 8.531,94.177 9.227,93.822" style="fill:none;stroke-width:0.2;stroke:black"/>
<polygon points="10.000,7.500 10.773,7.622 11.469,7.977 12.023,8.531 12.378,9.227 12.500,10.000 12.378,10.773 12.023,11.469 11.469,12.023 10.773,12.378 10.000,12.500 9.227,12.378 8.531,12.023 7.977,11.469 7.622,10.773 7.500,10.000 7.622,9.227 7.977,8.531 8.531,7.977 9.227,7.622" style="fill:none;stroke-width:0.2;stroke:black"/>
</svg>
